<svg xmlns="http://www.w3.org/2000/svg" version="1.1" xmlns:xlink="http://www.w3.org/1999/xlink" xmlns:svgjs="http://svgjs.com/svgjs" width="1440" height="560" preserveAspectRatio="none" viewBox="0 0 1440 560"><g mask="url(&quot;#SvgjsMask1001&quot;)" fill="none"><rect width="1440" height="560" x="0" y="0" fill="rgba(239, 123, 20, 1)"></rect><path d="M0,619.506C119.818,610.858,237.024,590.521,342.193,532.463C452.622,471.501,560.365,394.571,614.143,280.47C668.19,165.798,665.692,31.827,636.27,-91.482C608.432,-208.152,540.539,-310.437,453.467,-392.931C371.927,-470.183,262.586,-498.593,159.494,-543.187C40.498,-594.661,-78.821,-725.52,-198.137,-674.793C-321.612,-622.298,-292,-429.451,-368.04,-318.908C-431.702,-226.36,-578.548,-196.358,-602.705,-86.656C-626.852,23.001,-523.285,116.177,-487.267,222.527C-445.947,344.533,-475.349,502.902,-375.483,584.263C-276.007,665.306,-127.977,628.743,0,619.506" fill="#c2620d"></path><path d="M1440 1111.248C1539.297 1090.3809999999999 1596.161 990.315 1684.724 940.798 1781.614 886.625 1936.136 908.611 1982.674 807.831 2029.1599999999999 707.163 1903.187 605.383 1890.4769999999999 495.231 1877.194 380.111 1965.067 255.527 1907.351 155.038 1849.628 54.536 1719.003 18.888000000000034 1604.975-1.8540000000000418 1497.85-21.340000000000032 1385.875-5.354000000000042 1288.012 42.37800000000004 1198.682 85.94799999999998 1142.402 171.183 1084.536 251.98899999999998 1031.546 325.986 975.221 401.30899999999997 966.127 491.867 957.21 580.657 1011.8530000000001 658.769 1035.031 744.943 1063.815 851.9639999999999 1036.665 985.3679999999999 1118.855 1059.711 1200.922 1133.943 1331.706 1134.005 1440 1111.248" fill="#f29645"></path></g><defs><mask id="SvgjsMask1001"><rect width="1440" height="560" fill="#ffffff"></rect></mask></defs></svg>